<?xml version="1.0" encoding="UTF-8" standalone="no"?>
<!-- Created with Inkscape (http://www.inkscape.org/) -->

<svg
   width="297mm"
   height="210mm"
   viewBox="0 0 297 210"
   version="1.1"
   id="svg5"
   inkscape:version="1.3 (0e150ed6c4, 2023-07-21)"
   sodipodi:docname="trs_lhr.svg"
   xmlns:inkscape="http://www.inkscape.org/namespaces/inkscape"
   xmlns:sodipodi="http://sodipodi.sourceforge.net/DTD/sodipodi-0.dtd"
   xmlns="http://www.w3.org/2000/svg"
   xmlns:svg="http://www.w3.org/2000/svg">
  <sodipodi:namedview
     id="namedview7"
     pagecolor="#ffffff"
     bordercolor="#666666"
     borderopacity="1.0"
     inkscape:pageshadow="2"
     inkscape:pageopacity="0.0"
     inkscape:pagecheckerboard="0"
     inkscape:document-units="mm"
     showgrid="false"
     inkscape:zoom="1.0747123"
     inkscape:cx="441.97875"
     inkscape:cy="223.78082"
     inkscape:window-width="1858"
     inkscape:window-height="1057"
     inkscape:window-x="54"
     inkscape:window-y="-8"
     inkscape:window-maximized="1"
     inkscape:current-layer="layer1"
     inkscape:showpageshadow="2"
     inkscape:deskcolor="#d1d1d1" />
  <defs
     id="defs2" />
  <g
     inkscape:label="图层 1"
     inkscape:groupmode="layer"
     id="layer1">
    <path
       id="path38"
       style="fill:#f2f2f2;fill-opacity:1;stroke:#000000;stroke-width:0.383116;stroke-miterlimit:6.66667;stroke-dasharray:none;stroke-dashoffset:0"
       d="M 15.992785,12.340951 8.3502645,19.983473 V 115.90979 H 105.29334 l 6.62575,-6.62576 V 12.340951 Z" />
    <path
       id="path30"
       style="fill:#f2f2f2;fill-opacity:1;stroke:#000000;stroke-width:0.383116;stroke-miterlimit:6.66667;stroke-dasharray:none;stroke-dashoffset:0"
       d="m 129.40045,12.116381 -7.64251,7.642522 v 95.926307 h 96.94307 l 6.62575,-6.62575 V 12.116381 Z" />
    <path
       id="path40"
       style="fill:#f2f2f2;stroke:#4d4d4d;stroke-width:0.4;stroke-dasharray:none"
       inkscape:transform-center-x="0.67076046"
       inkscape:transform-center-y="-1.2196018"
       d="m 219.61988,24.306646 -2.7832,4.936228 -5.66649,0.0578 -2.8833,-4.878428 2.78319,-4.93623 5.66648,-0.05779 z" />
    <path
       inkscape:connector-curvature="0"
       id="path83921"
       style="fill:#67daff;fill-opacity:1;fill-rule:evenodd;stroke:#333333;stroke-width:0.246288;stroke-linecap:butt;stroke-linejoin:miter;stroke-miterlimit:4;stroke-dasharray:none"
       d="m -39.311514,-4.1581747 c 0.702406,0 1.342179,0.26809 1.822761,0.70744 l 2.430599,-1.391187 c -0.160532,-0.308776 -0.251369,-0.659571 -0.251369,-1.031674 0,-0.430633 0.121594,-0.832809 0.332253,-1.174238 l -2.335999,-2.918114 c -0.20638,0.108004 -0.441275,0.1692 -0.690482,0.1692 -0.504325,0 -0.950216,-0.2504523 -1.220129,-0.6336173 l -3.991996,1.1283453 c 0.03475,0.155155 0.05299,0.316485 0.05299,0.482014 0,0.416504 -0.115647,0.805845 -0.316826,1.137869 l 2.980962,3.798227 c 0.35834,-0.17562 0.761196,-0.274265 1.187138,-0.274265 z m 2.319871,1.315789 c 0.242895,0.405363 0.382504,0.879588 0.382504,1.386465 0,1.49241797 -1.20995,2.702333 -2.702375,2.702333 -1.492277,0 -2.702238,-1.20991503 -2.702238,-2.702333 0,-0.655051 0.233208,-1.255811 0.621065,-1.723535 l -2.912739,-3.711043 c -0.313746,0.172308 -0.674029,0.27035 -1.057224,0.27035 -1.214839,0 -2.199682,-0.984855 -2.199682,-2.199857 0,-1.2148423 0.984843,-2.1996983 2.199682,-2.1996983 0.771619,0 1.450226,0.397334 1.842874,0.998377 l 4.03015,-1.139241 c -0.0046,-0.0421 -0.0064,-0.08469 -0.0064,-0.127674 0,-0.823682 0.667715,-1.491404 1.491366,-1.491404 0.823788,0 1.491521,0.667722 1.491521,1.491404 0,0.292552 -0.08456,0.565405 -0.229997,0.795754 l 2.287936,2.8580573 c 0.381135,-0.300219 0.862101,-0.479267 1.384888,-0.479267 1.237151,0 2.240092,1.002935 2.240092,2.240097 0,1.237162 -1.002941,2.24014 -2.240092,2.24014 -0.583166,0 -1.114063,-0.222763 -1.512683,-0.587966 z" />
    <rect
       style="fill:#222222;fill-opacity:1;stroke:#000000;stroke-width:0.460027;stroke-miterlimit:6.66667;stroke-dasharray:1.38007, 0.460027;stroke-dashoffset:0"
       id="rect7"
       width="113.53996"
       height="113.53997"
       x="344.59677"
       y="41.360439" />
    <path
       id="rect3"
       style="fill:#00ff00;fill-opacity:1;stroke:#000000;stroke-width:0.460027;stroke-miterlimit:6.66667;stroke-dasharray:1.38007, 0.460027;stroke-dashoffset:0"
       d="M 193.05071,-18.216321 H 175.67657 V -0.84218867 Z" />
    <path
       id="path6"
       style="fill:#00ff00;fill-opacity:1;stroke:#000000;stroke-width:0.460027;stroke-miterlimit:6.66667;stroke-dasharray:1.38007, 0.460027;stroke-dashoffset:0"
       d="m 286.16013,-29.27634 -16.25895,16.25896 h 16.25895 z" />
    <path
       id="path7"
       style="fill:none;fill-opacity:1;stroke:#000000;stroke-width:0.460027;stroke-miterlimit:6.66667;stroke-dasharray:1.38007, 0.460027;stroke-dashoffset:0"
       d="m -123.20226,11.396252 -17.37414,17.37413 v 96.165708 h 97.280889 l 16.25895,-16.25896 V 11.396252 Z" />
    <text
       xml:space="preserve"
       style="font-size:6.56134px;line-height:1.25;font-family:sans-serif;word-spacing:0px;fill:#000000;stroke-width:0.307563"
       x="32.768475"
       y="28.90999"
       id="text3134"
       transform="scale(1.1018459,0.90756793)"><tspan
         sodipodi:role="line"
         id="tspan3132"
         style="font-style:normal;font-variant:normal;font-weight:bold;font-stretch:normal;font-family:sans-serif;-inkscape-font-specification:'sans-serif Bold';fill:#000000;stroke-width:0.307563"
         x="32.768475"
         y="28.90999">ENANGS MENT</tspan><tspan
         sodipodi:role="line"
         style="font-style:normal;font-variant:normal;font-weight:bold;font-stretch:normal;font-family:sans-serif;-inkscape-font-specification:'sans-serif Bold';fill:#000000;stroke-width:0.307563"
         x="32.768475"
         y="37.111664"
         id="tspan3136">SRT UNIN-LHR</tspan></text>
    <rect
       style="fill:#000000;stroke:none;stroke-width:0.315884;stroke-miterlimit:6.66667"
       id="rect9685"
       width="12.663352"
       height="1.4945247"
       x="-25.121073"
       y="-5.4184041"
       transform="matrix(0.99999681,0.00252724,-0.00504011,0.9999873,0,0)" />
    <text
       xml:space="preserve"
       style="font-size:5.64444px;line-height:1.25;font-family:sans-serif;word-spacing:0px;stroke-width:0.264583"
       x="50.535416"
       y="93.001038"
       id="text10498"><tspan
         sodipodi:role="line"
         id="tspan10496"
         style="stroke-width:0.264583" /></text>
    <text
       xml:space="preserve"
       style="font-size:4.55869px;line-height:1.25;font-family:sans-serif;word-spacing:0px;fill:#000000;fill-opacity:1;stroke:#000000;stroke-width:0.213689"
       x="14.2939"
       y="60.269966"
       id="text29543"
       transform="scale(1.1610928,0.86125761)"><tspan
         sodipodi:role="line"
         id="tspan29541"
         style="fill:#000000;fill-opacity:1;stroke:#000000;stroke-width:0.213689"
         x="14.2939"
         y="60.269966" /><tspan
         sodipodi:role="line"
         style="fill:#000000;fill-opacity:1;stroke:#000000;stroke-width:0.213689"
         x="14.2939"
         y="65.96833"
         id="tspan29545">BIZNIS KELERK</tspan><tspan
         sodipodi:role="line"
         style="fill:#000000;fill-opacity:1;stroke:#000000;stroke-width:0.213689"
         x="14.2939"
         y="71.666695"
         id="tspan1" /></text>
    <text
       xml:space="preserve"
       style="font-size:4.74939px;line-height:1.25;font-family:sans-serif;word-spacing:0px;fill:#000000;stroke-width:0.222626"
       x="16.946306"
       y="43.550514"
       id="text34167"><tspan
         sodipodi:role="line"
         style="fill:#000000;stroke-width:0.222626"
         x="16.946306"
         y="43.550514"
         id="tspan40">英特立尔:斯瑞德联和:赛德环境检测</tspan><tspan
         sodipodi:role="line"
         style="fill:#000000;stroke-width:0.222626"
         x="16.946306"
         y="49.606869"
         id="tspan41">给予:维今时代:时间安克</tspan></text>
    <text
       xml:space="preserve"
       style="font-size:4.31896px;line-height:1.25;font-family:sans-serif;word-spacing:0px;fill:#000000;stroke:#000000;stroke-width:0.202451"
       x="13.904563"
       y="76.115898"
       id="text71251"
       transform="scale(1.2255423,0.81596531)"><tspan
         sodipodi:role="line"
         id="tspan71249"
         style="fill:#000000;stroke:#000000;stroke-width:0.202451"
         x="13.904563"
         y="76.115898">VZS-SRD</tspan></text>
    <path
       style="fill:#000000;stroke:#000000;stroke-width:0.057;stroke-linecap:butt;stroke-linejoin:miter;stroke-miterlimit:4;stroke-dasharray:none;stroke-dashoffset:0;stroke-opacity:1"
       d="m -120.87076,53.154531 h 90.969256"
       id="path94303" />
    <path
       id="path3"
       style="fill:#e9e9e9;stroke:#999999;stroke-width:0.208674"
       inkscape:transform-center-x="-0.043246261"
       inkscape:transform-center-y="-2.0822898"
       transform="matrix(0.34175558,0,0,0.34175558,147.87608,82.823135)"
       d="M 174.97012,29.429929 153.61058,42.054078 131.99797,29.868248 131.74491,5.0582687 153.10445,-7.5658805 174.71705,4.6199494 Z" />
    <path
       id="rect4"
       style="fill:#00ff00;fill-opacity:1;stroke:#000000;stroke-width:0.460027;stroke-miterlimit:6.66667;stroke-dasharray:1.38007, 0.460027;stroke-dashoffset:0"
       d="M 331.37771 30.106689 L 322.99941 30.106689 L 322.99941 38.484989 L 331.37771 30.106689 z " />
    <path
       id="path29"
       style="fill:#222222;fill-opacity:1;stroke:#000000;stroke-width:0.460027;stroke-miterlimit:6.66667;stroke-dasharray:1.38007, 0.460027;stroke-dashoffset:0"
       d="m 417.33645,144.99954 -7.26364,7.26364 h 7.26364 z" />
    <path
       id="path8"
       style="fill:#e9e9e9;stroke:#999999;stroke-width:0.208674"
       inkscape:transform-center-x="-0.043244493"
       inkscape:transform-center-y="-2.0822812"
       transform="matrix(0.34175558,0,0,0.34175558,156.08752,68.639756)"
       d="M 174.97012,29.429929 153.61058,42.054078 131.99797,29.868248 131.74491,5.0582687 153.10445,-7.5658805 174.71705,4.6199494 Z" />
    <path
       id="path9"
       style="fill:#e9e9e9;stroke:#999999;stroke-width:0.208674"
       inkscape:transform-center-x="-0.043239798"
       inkscape:transform-center-y="-2.0822857"
       transform="matrix(0.34175558,0,0,0.34175558,131.45319,82.947553)"
       d="M 174.97012,29.429929 153.61058,42.054078 131.99797,29.868248 131.74491,5.0582687 153.10445,-7.5658805 174.71705,4.6199494 Z" />
    <path
       id="path10"
       style="fill:#e9e9e9;stroke:#999999;stroke-width:0.208674"
       inkscape:transform-center-x="-0.043248232"
       inkscape:transform-center-y="-2.0822941"
       transform="matrix(0.34175558,0,0,0.34175558,164.15713,82.916729)"
       d="M 174.97012,29.429929 153.61058,42.054078 131.99797,29.868248 131.74491,5.0582687 153.10445,-7.5658805 174.71705,4.6199494 Z" />
    <path
       id="path11"
       style="fill:#cfcfcf;stroke:#666666;stroke-width:0.208674"
       inkscape:transform-center-x="-0.043250002"
       inkscape:transform-center-y="-2.0822889"
       transform="matrix(0.34175558,0,0,0.34175558,155.94569,96.789786)"
       d="M 174.97012,29.429929 153.61058,42.054078 131.99797,29.868248 131.74491,5.0582687 153.10445,-7.5658805 174.71705,4.6199494 Z" />
    <path
       id="path12"
       style="fill:#e9e9e9;stroke:#999999;stroke-width:0.208674"
       inkscape:transform-center-x="-0.043253539"
       inkscape:transform-center-y="-2.0822909"
       transform="matrix(0.34175558,0,0,0.34175558,139.52281,96.914198)"
       d="M 174.97012,29.429929 153.61058,42.054078 131.99797,29.868248 131.74491,5.0582687 153.10445,-7.5658805 174.71705,4.6199494 Z" />
    <path
       sodipodi:type="star"
       style="fill:#363636;fill-opacity:1;stroke:#d4aa00;stroke-width:0.208674;stroke-dasharray:none;stroke-opacity:1"
       id="path13"
       inkscape:flatsided="true"
       sodipodi:sides="6"
       sodipodi:cx="153.35751"
       sodipodi:cy="17.244099"
       sodipodi:r1="24.81127"
       sodipodi:r2="12.405635"
       sodipodi:arg1="0.51339905"
       sodipodi:arg2="1.0369978"
       inkscape:rounded="3.469447e-18"
       inkscape:randomized="0"
       d="M 174.97012,29.429929 153.61058,42.054078 131.99797,29.868248 131.74491,5.0582687 153.10445,-7.5658805 174.71705,4.6199494 Z"
       inkscape:transform-center-x="-0.035595313"
       inkscape:transform-center-y="-1.7142921"
       transform="matrix(0.28135879,0,0,0.28135879,228.17129,-36.513536)" />
    <text
       xml:space="preserve"
       style="font-size:8.30286px;line-height:1.25;font-family:sans-serif;word-spacing:0px;fill:#000000;fill-opacity:1;stroke:none;stroke-width:0.389196"
       x="80.85817"
       y="-16.967897"
       id="text14"
       transform="scale(1.2777208,0.78264359)"><tspan
         sodipodi:role="line"
         id="tspan13"
         style="font-style:normal;font-variant:normal;font-weight:bold;font-stretch:normal;font-family:sans-serif;-inkscape-font-specification:'sans-serif Bold';fill:#000000;fill-opacity:1;stroke:none;stroke-width:0.389196"
         x="80.85817"
         y="-16.967897">VZS-SRD</tspan><tspan
         sodipodi:role="line"
         style="font-style:normal;font-variant:normal;font-weight:bold;font-stretch:normal;font-family:sans-serif;-inkscape-font-specification:'sans-serif Bold';fill:#000000;fill-opacity:1;stroke:none;stroke-width:0.389196"
         x="80.85817"
         y="-6.589323"
         id="tspan14" /></text>
    <rect
       style="fill:#ffcc00;fill-opacity:1;stroke:none;stroke-width:0.162229;stroke-miterlimit:6.66667"
       id="rect14"
       width="6.5035028"
       height="0.76754129"
       x="90.953781"
       y="-10.293841"
       transform="matrix(0.99999681,0.00252724,-0.00504011,0.9999873,0,0)" />
    <path
       style="fill:#000000;stroke:#000000;stroke-width:0.165;stroke-linecap:butt;stroke-linejoin:miter;stroke-miterlimit:4;stroke-dasharray:none;stroke-dashoffset:0;stroke-opacity:1"
       d="M 197.01523,-5.1552352 H 292.6621"
       id="path14" />
    <text
       xml:space="preserve"
       style="font-size:10.2632px;line-height:1.25;font-family:sans-serif;word-spacing:0px;fill:#ffcc00;fill-opacity:1;stroke-width:0.481091"
       x="79.701523"
       y="-7.1875505"
       id="text15"
       transform="scale(1.1346169,0.88135476)"><tspan
         sodipodi:role="line"
         id="tspan15"
         style="fill:#ffcc00;fill-opacity:1;stroke-width:0.481091"
         x="79.701523"
         y="-7.1875505">Z</tspan></text>
    <text
       xml:space="preserve"
       style="font-size:5.23089px;line-height:1.25;font-family:sans-serif;word-spacing:0px;fill:#000000;stroke-width:0.245198"
       x="145.10153"
       y="22.256163"
       id="text17"
       transform="scale(1.1018459,0.90756793)"><tspan
         sodipodi:role="line"
         id="tspan16"
         style="font-style:normal;font-variant:normal;font-weight:bold;font-stretch:normal;font-family:sans-serif;-inkscape-font-specification:'sans-serif Bold';fill:#000000;stroke-width:0.245198"
         x="145.10153"
         y="22.256163" /><tspan
         sodipodi:role="line"
         style="font-style:normal;font-variant:normal;font-weight:bold;font-stretch:normal;font-family:sans-serif;-inkscape-font-specification:'sans-serif Bold';fill:#000000;stroke-width:0.245198"
         x="145.10153"
         y="28.794775"
         id="tspan17">SRT UNIN-LHR</tspan></text>
    <text
       xml:space="preserve"
       style="font-size:4.4344px;line-height:1.25;font-family:sans-serif;word-spacing:0px;fill:#000000;fill-opacity:1;stroke:#000000;stroke-width:0.207862"
       x="111.18948"
       y="51.581268"
       id="text20"
       transform="scale(1.1610928,0.86125761)"><tspan
         sodipodi:role="line"
         id="tspan18"
         style="fill:#000000;fill-opacity:1;stroke:#000000;stroke-width:0.207862"
         x="111.18948"
         y="51.581268" /><tspan
         sodipodi:role="line"
         style="fill:#000000;fill-opacity:1;stroke:#000000;stroke-width:0.207862"
         x="111.18948"
         y="57.124275"
         id="tspan19">BIZNIS KELERK</tspan><tspan
         sodipodi:role="line"
         style="fill:#000000;fill-opacity:1;stroke:#000000;stroke-width:0.207862"
         x="111.18948"
         y="62.667282"
         id="tspan20" /></text>
    <text
       xml:space="preserve"
       style="font-size:4.2012px;line-height:1.25;font-family:sans-serif;word-spacing:0px;fill:#000000;stroke:#000000;stroke-width:0.196932"
       x="105.69466"
       y="66.415359"
       id="text21"
       transform="scale(1.2255423,0.81596531)"><tspan
         sodipodi:role="line"
         id="tspan21"
         style="fill:#000000;stroke:#000000;stroke-width:0.196932"
         x="105.69466"
         y="66.415359">VZS-SRD</tspan></text>
    <text
       xml:space="preserve"
       style="font-size:3.7321px;line-height:1.25;font-family:sans-serif;word-spacing:0px;fill:#000000;stroke:none;stroke-width:0.174942"
       x="129.00366"
       y="79.178162"
       id="text27"><tspan
         sodipodi:role="line"
         id="tspan22"
         style="fill:#000000;stroke:none;stroke-width:0.174942"
         x="129.00366"
         y="79.178162">天然的安全性(FTN:SLNSZ)</tspan><tspan
         sodipodi:role="line"
         style="fill:#000000;stroke:none;stroke-width:0.174942"
         x="129.00366"
         y="83.937286"
         id="tspan23" /><tspan
         sodipodi:role="line"
         style="fill:#000000;stroke:none;stroke-width:0.174942"
         x="129.00366"
         y="88.602409"
         id="tspan24">采用端到端加密</tspan><tspan
         sodipodi:role="line"
         style="fill:#000000;stroke:none;stroke-width:0.174942"
         x="129.00366"
         y="93.361534"
         id="tspan25">全封闭加密技术来保护安全</tspan><tspan
         sodipodi:role="line"
         style="fill:#000000;stroke:none;stroke-width:0.174942"
         x="129.00366"
         y="98.120651"
         id="tspan26">无法解密并窥探您的</tspan><tspan
         sodipodi:role="line"
         style="fill:#000000;stroke:none;stroke-width:0.174942"
         x="129.00366"
         y="102.87978"
         id="tspan27">更不可能泄露给第三方</tspan></text>
    <path
       id="path27"
       style="fill:#e9e9e9;fill-opacity:1;stroke:#999999;stroke-width:0.0713156;stroke-dasharray:none;stroke-opacity:1"
       inkscape:transform-center-x="-0.043233689"
       inkscape:transform-center-y="-2.0822854"
       d="m 225.10324,66.046111 -0.0866,-0.04895 -7.30008,4.314763 0.0866,8.478882 7.30007,4.116412 z" />
    <path
       id="path28"
       style="fill:#363636;fill-opacity:1;stroke:#d4aa00;stroke-width:0.0587123;stroke-dasharray:none;stroke-opacity:1"
       inkscape:transform-center-x="-0.035595313"
       inkscape:transform-center-y="-1.7142921"
       d="m 279.69038,-64.609103 v 13.881318 l 0.0708,0.0398 6.00997,-3.55224 -0.0713,-6.98045 z" />
    <text
       xml:space="preserve"
       style="font-size:7.57371px;line-height:1.25;font-family:sans-serif;word-spacing:0px;fill:#000000;fill-opacity:1;stroke:none;stroke-width:0.355017"
       x="100.64985"
       y="52.44519"
       id="text29"
       transform="scale(1.2777208,0.78264359)"><tspan
         sodipodi:role="line"
         id="tspan28"
         style="font-style:normal;font-variant:normal;font-weight:bold;font-stretch:normal;font-family:sans-serif;-inkscape-font-specification:'sans-serif Bold';fill:#000000;fill-opacity:1;stroke:none;stroke-width:0.355017"
         x="100.64985"
         y="52.44519">ENANGS MENT</tspan><tspan
         sodipodi:role="line"
         style="font-style:normal;font-variant:normal;font-weight:bold;font-stretch:normal;font-family:sans-serif;-inkscape-font-specification:'sans-serif Bold';fill:#000000;fill-opacity:1;stroke:none;stroke-width:0.355017"
         x="100.64985"
         y="61.912331"
         id="tspan29" /></text>
    <path
       id="path31"
       style="fill:#e9e9e9;stroke:#999999;stroke-width:0.208674"
       inkscape:transform-center-x="-0.043041049"
       inkscape:transform-center-y="-2.0726874"
       transform="matrix(0.34017955,0,0,0.34017955,34.824704,83.943207)"
       d="M 174.97012,29.429929 153.61058,42.054078 131.99797,29.868248 131.74491,5.0582687 153.10445,-7.5658805 174.71705,4.6199494 Z" />
    <path
       id="path32"
       style="fill:#e9e9e9;stroke:#999999;stroke-width:0.208674"
       inkscape:transform-center-x="-0.043037846"
       inkscape:transform-center-y="-2.0726785"
       transform="matrix(0.34017955,0,0,0.34017955,42.998275,69.825236)"
       d="M 174.97012,29.429929 153.61058,42.054078 131.99797,29.868248 131.74491,5.0582687 153.10445,-7.5658805 174.71705,4.6199494 Z" />
    <path
       id="path33"
       style="fill:#e9e9e9;stroke:#999999;stroke-width:0.208674"
       inkscape:transform-center-x="-0.043037454"
       inkscape:transform-center-y="-2.0726836"
       transform="matrix(0.34017955,0,0,0.34017955,18.477552,84.067051)"
       d="M 174.97012,29.429929 153.61058,42.054078 131.99797,29.868248 131.74491,5.0582687 153.10445,-7.5658805 174.71705,4.6199494 Z" />
    <path
       id="path34"
       style="fill:#e9e9e9;stroke:#999999;stroke-width:0.208674"
       inkscape:transform-center-x="-0.043047069"
       inkscape:transform-center-y="-2.0726901"
       transform="matrix(0.34017955,0,0,0.34017955,51.030677,84.036371)"
       d="M 174.97012,29.429929 153.61058,42.054078 131.99797,29.868248 131.74491,5.0582687 153.10445,-7.5658805 174.71705,4.6199494 Z" />
    <path
       id="path35"
       style="fill:#cfcfcf;stroke:#666666;stroke-width:0.208674"
       inkscape:transform-center-x="-0.043040273"
       inkscape:transform-center-y="-2.0726923"
       transform="matrix(0.34017955,0,0,0.34017955,42.857096,97.845434)"
       d="M 174.97012,29.429929 153.61058,42.054078 131.99797,29.868248 131.74491,5.0582687 153.10445,-7.5658805 174.71705,4.6199494 Z" />
    <path
       id="path36"
       style="fill:#e9e9e9;stroke:#999999;stroke-width:0.208674"
       inkscape:transform-center-x="-0.043046677"
       inkscape:transform-center-y="-2.0726856"
       transform="matrix(0.34017955,0,0,0.34017955,26.509954,97.969281)"
       d="M 174.97012,29.429929 153.61058,42.054078 131.99797,29.868248 131.74491,5.0582687 153.10445,-7.5658805 174.71705,4.6199494 Z" />
    <path
       id="path37"
       style="fill:#e9e9e9;fill-opacity:1;stroke:#999999;stroke-width:0.0709867;stroke-dasharray:none;stroke-opacity:1"
       inkscape:transform-center-x="-0.043038805"
       inkscape:transform-center-y="-2.0726797"
       d="m 111.69573,67.243551 -0.0862,-0.04872 -7.26641,4.294866 0.0862,8.43978 7.26639,4.097428 z" />
    <path
       inkscape:connector-curvature="0"
       id="path39"
       style="fill:#e9e9e9;fill-opacity:1;fill-rule:evenodd;stroke:#333333;stroke-width:0.333166;stroke-linecap:butt;stroke-linejoin:miter;stroke-miterlimit:4;stroke-dasharray:none"
       d="m 214.6986,-16.306038 c 0.67834,0 1.2962,0.258905 1.76031,0.683198 l 2.34731,-1.343516 c -0.15503,-0.298196 -0.24275,-0.636969 -0.24275,-0.996324 0,-0.415877 0.11743,-0.80427 0.32088,-1.134 l -2.25597,-2.818124 c -0.19931,0.10429 -0.42617,0.1634 -0.66683,0.1634 -0.48703,0 -0.91765,-0.241868 -1.17832,-0.611903 l -3.85521,1.08968 c 0.0336,0.149838 0.0512,0.305641 0.0512,0.465497 0,0.402233 -0.11171,0.778234 -0.30597,1.098881 l 2.87881,3.668076 c 0.34607,-0.169599 0.73513,-0.264865 1.14647,-0.264865 z m 2.24039,1.270703 c 0.23458,0.391475 0.36939,0.849449 0.36939,1.338956 0,1.441278 -1.16849,2.609735 -2.60978,2.609735 -1.44114,0 -2.60964,-1.168457 -2.60964,-2.609735 0,-0.632604 0.2252,-1.212779 0.59978,-1.664477 l -2.81296,-3.58388 c -0.30298,0.166402 -0.65092,0.261085 -1.02098,0.261085 -1.17322,0 -2.12432,-0.951109 -2.12432,-2.124479 0,-1.173213 0.9511,-2.124322 2.12432,-2.124322 0.74519,0 1.40053,0.383717 1.77974,0.964165 l 3.89206,-1.100203 c -0.005,-0.04065 -0.005,-0.0818 -0.005,-0.123294 0,-0.795459 0.64482,-1.440303 1.44026,-1.440303 0.79556,0 1.44041,0.644844 1.44041,1.440303 0,0.282527 -0.0816,0.546029 -0.22212,0.768487 l 2.20955,2.760121 c 0.36808,-0.289931 0.83254,-0.462845 1.33745,-0.462845 1.19476,0 2.16334,0.968572 2.16334,2.163341 0,1.194768 -0.96858,2.163378 -2.16334,2.163378 -0.5632,0 -1.07589,-0.215128 -1.46088,-0.567816 z" />
    <text
       xml:space="preserve"
       style="font-size:4.32227px;line-height:1.25;font-family:sans-serif;word-spacing:0px;fill:#000000;stroke-width:0.202606"
       x="16.951729"
       y="86.190834"
       id="text13674"><tspan
         sodipodi:role="line"
         id="tspan13672"
         style="fill:#000000;stroke-width:0.202606"
         x="16.951729"
         y="86.190834">天然的安全性</tspan><tspan
         sodipodi:role="line"
         style="fill:#000000;stroke-width:0.202606"
         x="16.951729"
         y="91.70253"
         id="tspan13676" /><tspan
         sodipodi:role="line"
         style="fill:#000000;stroke-width:0.202606"
         x="16.951729"
         y="97.10537"
         id="tspan13678">采用端到端加密</tspan><tspan
         sodipodi:role="line"
         style="fill:#000000;stroke-width:0.202606"
         x="16.951729"
         y="102.61707"
         id="tspan16740">全封闭保护安全</tspan><tspan
         sodipodi:role="line"
         style="fill:#000000;stroke-width:0.202606"
         x="16.951729"
         y="108.12876"
         id="tspan25916">无法解密并窥探您的</tspan></text>
    <path
       id="path1"
       style="fill:#e9e9e9;stroke:#999999;stroke-width:0.371;stroke-dasharray:none"
       inkscape:transform-center-x="-0.043037454"
       inkscape:transform-center-y="-2.0726836"
       d="m 31.60792,32.284842 -7.266079,4.294477 -7.352168,-4.14537 -0.08609,-8.439848 7.266079,-4.294477 7.352165,4.14537 z" />
    <text
       xml:space="preserve"
       style="font-size:5.06261px;line-height:1.25;font-family:sans-serif;word-spacing:0px;fill:#000000;stroke:#000000;stroke-width:0.237312"
       x="16.429024"
       y="33.767906"
       id="text2"
       transform="scale(1.1346169,0.88135476)"><tspan
         sodipodi:role="line"
         id="tspan2"
         style="fill:#000000;stroke:#000000;stroke-width:0.237312"
         x="16.429024"
         y="33.767906">TZH</tspan></text>
    <text
       xml:space="preserve"
       style="font-size:7.9034px;line-height:1.25;font-family:sans-serif;word-spacing:0px;fill:#000000;stroke-width:0.370475"
       x="-176.73248"
       y="-13.265738"
       id="text6"
       transform="scale(-1.1346169,0.88135476)"><tspan
         sodipodi:role="line"
         id="tspan6"
         style="fill:#000000;stroke-width:0.370475"
         x="-176.73248"
         y="-13.265738">A</tspan></text>
    <path
       id="path5"
       style="fill:#f2f2f2;fill-opacity:0.660377;stroke:#666666;stroke-width:0.42;stroke-dasharray:none"
       inkscape:transform-center-x="-1.2266451"
       inkscape:transform-center-y="0.0256694"
       d="m 198.89729,-32.602441 -4.99463,0.0508 -2.45327,4.35119 2.54135,4.29981 4.84416,-0.0492 -2.5123,-4.25057 2.45328,-4.35119 0.15047,-0.002 z m 0.0291,0.0492 2.5123,4.25057 -2.45328,4.35119 -0.15046,0.002 0.0291,0.0492 4.99462,-0.0508 2.45327,-4.35119 -2.54135,-4.29981 z" />
    <text
       xml:space="preserve"
       style="font-size:3.43231px;line-height:1.25;font-family:sans-serif;word-spacing:0px;fill:#000000;stroke:#000000;stroke-width:0.160891"
       x="185.21362"
       y="28.892048"
       id="text30"
       transform="scale(1.1346169,0.88135476)"><tspan
         sodipodi:role="line"
         id="tspan30"
         style="fill:#000000;stroke:#000000;stroke-width:0.160891"
         x="185.21362"
         y="28.892048">TZH</tspan></text>
  </g>
</svg>
