<?xml version="1.0" encoding="UTF-8" standalone="no"?>
<!-- Created with Inkscape (http://www.inkscape.org/) -->

<svg
   width="297mm"
   height="210mm"
   viewBox="0 0 297 210"
   version="1.1"
   id="svg5"
   inkscape:version="1.3 (0e150ed6c4, 2023-07-21)"
   sodipodi:docname="trs_lhr.svg"
   xmlns:inkscape="http://www.inkscape.org/namespaces/inkscape"
   xmlns:sodipodi="http://sodipodi.sourceforge.net/DTD/sodipodi-0.dtd"
   xmlns="http://www.w3.org/2000/svg"
   xmlns:svg="http://www.w3.org/2000/svg">
  <sodipodi:namedview
     id="namedview7"
     pagecolor="#ffffff"
     bordercolor="#666666"
     borderopacity="1.0"
     inkscape:pageshadow="2"
     inkscape:pageopacity="0.0"
     inkscape:pagecheckerboard="0"
     inkscape:document-units="mm"
     showgrid="false"
     inkscape:zoom="1.0747123"
     inkscape:cx="557.35847"
     inkscape:cy="267.51345"
     inkscape:window-width="1858"
     inkscape:window-height="1057"
     inkscape:window-x="54"
     inkscape:window-y="-8"
     inkscape:window-maximized="1"
     inkscape:current-layer="layer1"
     inkscape:showpageshadow="2"
     inkscape:deskcolor="#d1d1d1" />
  <defs
     id="defs2" />
  <g
     inkscape:label="图层 1"
     inkscape:groupmode="layer"
     id="layer1">
    <path
       id="path38"
       style="fill:#f2f2f2;fill-opacity:1;stroke:#000000;stroke-width:0.460027;stroke-miterlimit:6.66667;stroke-dasharray:1.38007, 0.460027;stroke-dashoffset:0"
       d="m 16.747006,12.381014 -8.3782994,8.3783 V 125.92086 H 114.64491 l 7.26364,-7.26364 V 12.381014 Z" />
    <path
       id="path30"
       style="fill:#f2f2f2;fill-opacity:1;stroke:#000000;stroke-width:0.460027;stroke-miterlimit:6.66667;stroke-dasharray:1.38007, 0.460027;stroke-dashoffset:0"
       d="m 141.07292,12.134824 -8.3783,8.3783 V 125.67467 h 106.2762 l 7.26364,-7.26364 V 12.134824 Z" />
    <path
       inkscape:connector-curvature="0"
       id="path83921"
       style="fill:#67daff;fill-opacity:1;fill-rule:evenodd;stroke:#333333;stroke-width:0.27;stroke-linecap:butt;stroke-linejoin:miter;stroke-miterlimit:4;stroke-dasharray:none"
       d="m 26.290161,31.538497 c 0.770029,0 1.471396,0.293901 1.998246,0.775549 l 2.664603,-1.525122 c -0.175987,-0.338504 -0.275569,-0.723071 -0.275569,-1.130999 0,-0.472091 0.1333,-0.912986 0.36424,-1.287286 l -2.560896,-3.199054 c -0.226248,0.118403 -0.483758,0.18549 -0.756957,0.18549 -0.552879,0 -1.041698,-0.274564 -1.337597,-0.694618 l -4.376322,1.236975 c 0.0381,0.170093 0.05809,0.346954 0.05809,0.52842 0,0.456602 -0.12678,0.883428 -0.347328,1.247417 l 3.267953,4.163898 c 0.392838,-0.192527 0.834479,-0.30067 1.301428,-0.30067 z m 2.543215,1.442466 c 0.266279,0.44439 0.419329,0.96427 0.419329,1.519946 0,1.636099 -1.326438,2.962499 -2.962544,2.962499 -1.635946,0 -2.962394,-1.3264 -2.962394,-2.962499 0,-0.718115 0.25566,-1.376713 0.680858,-1.889467 l -3.193162,-4.068321 c -0.343951,0.188897 -0.73892,0.296378 -1.159007,0.296378 -1.331797,0 -2.411455,-1.079672 -2.411455,-2.411647 0,-1.3318 1.079658,-2.411472 2.411455,-2.411472 0.845906,0 1.589846,0.435586 2.020295,1.094494 l 4.41815,-1.24892 c -0.005,-0.04615 -0.007,-0.09284 -0.007,-0.139965 0,-0.902982 0.731999,-1.634989 1.634946,-1.634989 0.903098,0 1.635117,0.732007 1.635117,1.634989 0,0.320717 -0.0927,0.619838 -0.25214,0.872365 l 2.508206,3.133213 c 0.417828,-0.329122 0.945098,-0.525408 1.518217,-0.525408 1.356256,0 2.455754,1.099492 2.455754,2.455762 0,1.356268 -1.099498,2.455807 -2.455754,2.455807 -0.63931,0 -1.221319,-0.244209 -1.658317,-0.644572 z" />
    <rect
       style="fill:#222222;fill-opacity:1;stroke:#000000;stroke-width:0.460027;stroke-miterlimit:6.66667;stroke-dasharray:1.38007, 0.460027;stroke-dashoffset:0"
       id="rect7"
       width="113.53996"
       height="113.53997"
       x="344.59677"
       y="41.360439" />
    <path
       id="rect3"
       style="fill:#00ff00;fill-opacity:1;stroke:#000000;stroke-width:0.460027;stroke-miterlimit:6.66667;stroke-dasharray:1.38007, 0.460027;stroke-dashoffset:0"
       d="M 193.05071,-18.216321 H 175.67657 V -0.84218867 Z" />
    <path
       id="path6"
       style="fill:#00ff00;fill-opacity:1;stroke:#000000;stroke-width:0.460027;stroke-miterlimit:6.66667;stroke-dasharray:1.38007, 0.460027;stroke-dashoffset:0"
       d="m 286.16013,-29.27634 -16.25895,16.25896 h 16.25895 z" />
    <path
       id="path7"
       style="fill:none;fill-opacity:1;stroke:#000000;stroke-width:0.460027;stroke-miterlimit:6.66667;stroke-dasharray:1.38007, 0.460027;stroke-dashoffset:0"
       d="m -123.20226,11.396252 -17.37414,17.37413 v 96.165708 h 97.280889 l 16.25895,-16.25896 V 11.396252 Z" />
    <text
       xml:space="preserve"
       style="font-size:7.19303px;line-height:1.25;font-family:sans-serif;word-spacing:0px;fill:#000000;stroke-width:0.337173"
       x="35.210365"
       y="30.428301"
       id="text3134"
       transform="scale(1.1018459,0.90756793)"><tspan
         sodipodi:role="line"
         id="tspan3132"
         style="font-style:normal;font-variant:normal;font-weight:bold;font-stretch:normal;font-family:sans-serif;-inkscape-font-specification:'sans-serif Bold';fill:#000000;stroke-width:0.337173"
         x="35.210365"
         y="30.428301">ENANGS MENT</tspan><tspan
         sodipodi:role="line"
         style="font-style:normal;font-variant:normal;font-weight:bold;font-stretch:normal;font-family:sans-serif;-inkscape-font-specification:'sans-serif Bold';fill:#000000;stroke-width:0.337173"
         x="35.210365"
         y="39.419586"
         id="tspan3136">SRT UNIN-LHR</tspan></text>
    <rect
       style="fill:#000000;stroke:none;stroke-width:0.315884;stroke-miterlimit:6.66667"
       id="rect9685"
       width="12.663352"
       height="1.4945247"
       x="-25.121073"
       y="-5.4184041"
       transform="matrix(0.99999681,0.00252724,-0.00504011,0.9999873,0,0)" />
    <text
       xml:space="preserve"
       style="font-size:5.64444px;line-height:1.25;font-family:sans-serif;word-spacing:0px;stroke-width:0.264583"
       x="50.535416"
       y="93.001038"
       id="text10498"><tspan
         sodipodi:role="line"
         id="tspan10496"
         style="stroke-width:0.264583" /></text>
    <text
       xml:space="preserve"
       style="font-size:3.89132px;line-height:1.25;font-family:sans-serif;word-spacing:0px;fill:#000000;stroke-width:0.182406"
       x="17.539131"
       y="86.960365"
       id="text13674"><tspan
         sodipodi:role="line"
         id="tspan13672"
         style="fill:#000000;stroke-width:0.182406"
         x="17.539131"
         y="86.960365">天然的安全性(FTN:SLNSZ)</tspan><tspan
         sodipodi:role="line"
         style="fill:#000000;stroke-width:0.182406"
         x="17.539131"
         y="91.922523"
         id="tspan13676" /><tspan
         sodipodi:role="line"
         style="fill:#000000;stroke-width:0.182406"
         x="17.539131"
         y="96.786667"
         id="tspan13678">采用端到端加密</tspan><tspan
         sodipodi:role="line"
         style="fill:#000000;stroke-width:0.182406"
         x="17.539131"
         y="101.74883"
         id="tspan16740">全封闭加密技术来保护安全</tspan><tspan
         sodipodi:role="line"
         style="fill:#000000;stroke-width:0.182406"
         x="17.539131"
         y="106.71098"
         id="tspan23392">无法解密并窥探您的</tspan><tspan
         sodipodi:role="line"
         style="fill:#000000;stroke-width:0.182406"
         x="17.539131"
         y="111.67313"
         id="tspan25916">更不可能泄露给第三方</tspan></text>
    <text
       xml:space="preserve"
       style="font-size:4.62358px;line-height:1.25;font-family:sans-serif;word-spacing:0px;fill:#000000;fill-opacity:1;stroke:#000000;stroke-width:0.21673"
       x="15.167115"
       y="64.818214"
       id="text29543"
       transform="scale(1.1610928,0.86125761)"><tspan
         sodipodi:role="line"
         id="tspan29541"
         style="fill:#000000;fill-opacity:1;stroke:#000000;stroke-width:0.21673"
         x="15.167115"
         y="64.818214" /><tspan
         sodipodi:role="line"
         style="fill:#000000;fill-opacity:1;stroke:#000000;stroke-width:0.21673"
         x="15.167115"
         y="70.597694"
         id="tspan29545">BIZNIS KELERK</tspan><tspan
         sodipodi:role="line"
         style="fill:#000000;fill-opacity:1;stroke:#000000;stroke-width:0.21673"
         x="15.167115"
         y="76.377159"
         id="tspan1" /></text>
    <text
       xml:space="preserve"
       style="font-size:3.94457px;line-height:1.25;font-family:sans-serif;word-spacing:0px;fill:#000000;stroke-width:0.184901"
       x="18.135155"
       y="47.851456"
       id="text34167"><tspan
         sodipodi:role="line"
         style="fill:#000000;stroke-width:0.184901"
         x="18.135155"
         y="47.851456"
         id="tspan47083">英特立尔:时间安克:斯瑞德联和:赛德环境检测</tspan><tspan
         sodipodi:role="line"
         style="fill:#000000;stroke-width:0.184901"
         x="18.135155"
         y="52.881516"
         id="tspan40913">给予:维今时代</tspan></text>
    <text
       xml:space="preserve"
       style="font-size:4.38043px;line-height:1.25;font-family:sans-serif;word-spacing:0px;fill:#000000;stroke:#000000;stroke-width:0.205333"
       x="14.872379"
       y="81.094551"
       id="text71251"
       transform="scale(1.2255423,0.81596531)"><tspan
         sodipodi:role="line"
         id="tspan71249"
         style="fill:#000000;stroke:#000000;stroke-width:0.205333"
         x="14.872379"
         y="81.094551">VZS-SRD</tspan></text>
    <path
       style="fill:#000000;stroke:#000000;stroke-width:0.057;stroke-linecap:butt;stroke-linejoin:miter;stroke-miterlimit:4;stroke-dasharray:none;stroke-dashoffset:0;stroke-opacity:1"
       d="m -120.87076,53.154531 h 90.969256"
       id="path94303" />
    <text
       xml:space="preserve"
       style="font-size:19.984px;line-height:1.25;font-family:sans-serif;word-spacing:0px;fill:#000000;stroke-width:0.936759"
       x="-23.102695"
       y="2.0187562"
       id="text1666"
       transform="scale(1.1346169,0.88135476)"><tspan
         sodipodi:role="line"
         id="tspan1664"
         style="fill:#000000;stroke-width:0.936759"
         x="-23.102695"
         y="2.0187562">Z</tspan></text>
    <path
       sodipodi:type="star"
       style="fill:#e9e9e9;fill-opacity:1;stroke:#999999;stroke-width:0.208674;stroke-dasharray:none;stroke-opacity:1"
       id="path3"
       inkscape:flatsided="true"
       sodipodi:sides="6"
       sodipodi:cx="153.35751"
       sodipodi:cy="17.244099"
       sodipodi:r1="24.81127"
       sodipodi:r2="12.405635"
       sodipodi:arg1="0.51339905"
       sodipodi:arg2="1.0369978"
       inkscape:rounded="3.469447e-18"
       inkscape:randomized="0"
       d="M 174.97012,29.429929 153.61058,42.054078 131.99797,29.868248 131.74491,5.0582687 153.10445,-7.5658805 174.71705,4.6199494 Z"
       inkscape:transform-center-x="-0.047407165"
       inkscape:transform-center-y="-2.2827607"
       transform="matrix(0.37465785,0,0,0.37465785,161.32727,89.64882)" />
    <path
       id="rect4"
       style="fill:#00ff00;fill-opacity:1;stroke:#000000;stroke-width:0.460027;stroke-miterlimit:6.66667;stroke-dasharray:1.38007, 0.460027;stroke-dashoffset:0"
       d="M 331.37771 30.106689 L 322.99941 30.106689 L 322.99941 38.484989 L 331.37771 30.106689 z " />
    <path
       id="path29"
       style="fill:#222222;fill-opacity:1;stroke:#000000;stroke-width:0.460027;stroke-miterlimit:6.66667;stroke-dasharray:1.38007, 0.460027;stroke-dashoffset:0"
       d="m 417.33645,144.99954 -7.26364,7.26364 h 7.26364 z" />
    <path
       sodipodi:type="star"
       style="fill:#e9e9e9;fill-opacity:1;stroke:#999999;stroke-width:0.208674;stroke-dasharray:none;stroke-opacity:1"
       id="path8"
       inkscape:flatsided="true"
       sodipodi:sides="6"
       sodipodi:cx="153.35751"
       sodipodi:cy="17.244099"
       sodipodi:r1="24.81127"
       sodipodi:r2="12.405635"
       sodipodi:arg1="0.51339905"
       sodipodi:arg2="1.0369978"
       inkscape:rounded="3.469447e-18"
       inkscape:randomized="0"
       d="M 174.97012,29.429929 153.61058,42.054078 131.99797,29.868248 131.74491,5.0582687 153.10445,-7.5658805 174.71705,4.6199494 Z"
       inkscape:transform-center-x="-0.047404636"
       inkscape:transform-center-y="-2.2827515"
       transform="matrix(0.37465785,0,0,0.37465785,170.32926,74.099946)" />
    <path
       sodipodi:type="star"
       style="fill:#e9e9e9;fill-opacity:1;stroke:#999999;stroke-width:0.208674;stroke-dasharray:none;stroke-opacity:1"
       id="path9"
       inkscape:flatsided="true"
       sodipodi:sides="6"
       sodipodi:cx="153.35751"
       sodipodi:cy="17.244099"
       sodipodi:r1="24.81127"
       sodipodi:r2="12.405635"
       sodipodi:arg1="0.51339905"
       sodipodi:arg2="1.0369978"
       inkscape:rounded="3.469447e-18"
       inkscape:randomized="0"
       d="M 174.97012,29.429929 153.61058,42.054078 131.99797,29.868248 131.74491,5.0582687 153.10445,-7.5658805 174.71705,4.6199494 Z"
       inkscape:transform-center-x="-0.047402221"
       inkscape:transform-center-y="-2.2827565"
       transform="matrix(0.37465785,0,0,0.37465785,143.32328,89.785216)" />
    <path
       sodipodi:type="star"
       style="fill:#e9e9e9;fill-opacity:1;stroke:#999999;stroke-width:0.208674;stroke-dasharray:none;stroke-opacity:1"
       id="path10"
       inkscape:flatsided="true"
       sodipodi:sides="6"
       sodipodi:cx="153.35751"
       sodipodi:cy="17.244099"
       sodipodi:r1="24.81127"
       sodipodi:r2="12.405635"
       sodipodi:arg1="0.51339905"
       sodipodi:arg2="1.0369978"
       inkscape:rounded="3.469447e-18"
       inkscape:randomized="0"
       d="M 174.97012,29.429929 153.61058,42.054078 131.99797,29.868248 131.74491,5.0582687 153.10445,-7.5658805 174.71705,4.6199494 Z"
       inkscape:transform-center-x="-0.04740273"
       inkscape:transform-center-y="-2.2827651"
       transform="matrix(0.37465785,0,0,0.37465785,179.17576,89.751425)" />
    <path
       sodipodi:type="star"
       style="fill:#e9e9e9;fill-opacity:1;stroke:#999999;stroke-width:0.208674;stroke-dasharray:none;stroke-opacity:1"
       id="path11"
       inkscape:flatsided="true"
       sodipodi:sides="6"
       sodipodi:cx="153.35751"
       sodipodi:cy="17.244099"
       sodipodi:r1="24.81127"
       sodipodi:r2="12.405635"
       sodipodi:arg1="0.51339905"
       sodipodi:arg2="1.0369978"
       inkscape:rounded="3.469447e-18"
       inkscape:randomized="0"
       d="M 174.97012,29.429929 153.61058,42.054078 131.99797,29.868248 131.74491,5.0582687 153.10445,-7.5658805 174.71705,4.6199494 Z"
       inkscape:transform-center-x="-0.047405259"
       inkscape:transform-center-y="-2.2827602"
       transform="matrix(0.37465785,0,0,0.37465785,170.17377,104.9601)" />
    <path
       sodipodi:type="star"
       style="fill:#e9e9e9;fill-opacity:1;stroke:#999999;stroke-width:0.208674;stroke-dasharray:none;stroke-opacity:1"
       id="path12"
       inkscape:flatsided="true"
       sodipodi:sides="6"
       sodipodi:cx="153.35751"
       sodipodi:cy="17.244099"
       sodipodi:r1="24.81127"
       sodipodi:r2="12.405635"
       sodipodi:arg1="0.51339905"
       sodipodi:arg2="1.0369978"
       inkscape:rounded="3.469447e-18"
       inkscape:randomized="0"
       d="M 174.97012,29.429929 153.61058,42.054078 131.99797,29.868248 131.74491,5.0582687 153.10445,-7.5658805 174.71705,4.6199494 Z"
       inkscape:transform-center-x="-0.047410315"
       inkscape:transform-center-y="-2.2827621"
       transform="matrix(0.37465785,0,0,0.37465785,152.16979,105.09649)" />
    <path
       sodipodi:type="star"
       style="fill:#363636;fill-opacity:1;stroke:#d4aa00;stroke-width:0.208674;stroke-dasharray:none;stroke-opacity:1"
       id="path13"
       inkscape:flatsided="true"
       sodipodi:sides="6"
       sodipodi:cx="153.35751"
       sodipodi:cy="17.244099"
       sodipodi:r1="24.81127"
       sodipodi:r2="12.405635"
       sodipodi:arg1="0.51339905"
       sodipodi:arg2="1.0369978"
       inkscape:rounded="3.469447e-18"
       inkscape:randomized="0"
       d="M 174.97012,29.429929 153.61058,42.054078 131.99797,29.868248 131.74491,5.0582687 153.10445,-7.5658805 174.71705,4.6199494 Z"
       inkscape:transform-center-x="-0.035595313"
       inkscape:transform-center-y="-1.7142921"
       transform="matrix(0.28135879,0,0,0.28135879,228.17129,-36.513536)" />
    <text
       xml:space="preserve"
       style="font-size:8.30286px;line-height:1.25;font-family:sans-serif;word-spacing:0px;fill:#000000;fill-opacity:1;stroke:none;stroke-width:0.389196"
       x="80.85817"
       y="-16.967897"
       id="text14"
       transform="scale(1.2777208,0.78264359)"><tspan
         sodipodi:role="line"
         id="tspan13"
         style="font-style:normal;font-variant:normal;font-weight:bold;font-stretch:normal;font-family:sans-serif;-inkscape-font-specification:'sans-serif Bold';fill:#000000;fill-opacity:1;stroke:none;stroke-width:0.389196"
         x="80.85817"
         y="-16.967897">VZS-SRD</tspan><tspan
         sodipodi:role="line"
         style="font-style:normal;font-variant:normal;font-weight:bold;font-stretch:normal;font-family:sans-serif;-inkscape-font-specification:'sans-serif Bold';fill:#000000;fill-opacity:1;stroke:none;stroke-width:0.389196"
         x="80.85817"
         y="-6.589323"
         id="tspan14" /></text>
    <rect
       style="fill:#ffcc00;fill-opacity:1;stroke:none;stroke-width:0.162229;stroke-miterlimit:6.66667"
       id="rect14"
       width="6.5035028"
       height="0.76754129"
       x="90.953781"
       y="-10.293841"
       transform="matrix(0.99999681,0.00252724,-0.00504011,0.9999873,0,0)" />
    <path
       style="fill:#000000;stroke:#000000;stroke-width:0.165;stroke-linecap:butt;stroke-linejoin:miter;stroke-miterlimit:4;stroke-dasharray:none;stroke-dashoffset:0;stroke-opacity:1"
       d="M 197.01523,-5.1552352 H 292.6621"
       id="path14" />
    <text
       xml:space="preserve"
       style="font-size:10.2632px;line-height:1.25;font-family:sans-serif;word-spacing:0px;fill:#ffcc00;fill-opacity:1;stroke-width:0.481091"
       x="79.701523"
       y="-7.1875505"
       id="text15"
       transform="scale(1.1346169,0.88135476)"><tspan
         sodipodi:role="line"
         id="tspan15"
         style="fill:#ffcc00;fill-opacity:1;stroke-width:0.481091"
         x="79.701523"
         y="-7.1875505">Z</tspan></text>
    <text
       xml:space="preserve"
       style="font-size:5.73449px;line-height:1.25;font-family:sans-serif;word-spacing:0px;fill:#000000;stroke-width:0.268805"
       x="154.81535"
       y="20.183489"
       id="text17"
       transform="scale(1.1018459,0.90756793)"><tspan
         sodipodi:role="line"
         id="tspan16"
         style="font-style:normal;font-variant:normal;font-weight:bold;font-stretch:normal;font-family:sans-serif;-inkscape-font-specification:'sans-serif Bold';fill:#000000;stroke-width:0.268805"
         x="154.81535"
         y="20.183489" /><tspan
         sodipodi:role="line"
         style="font-style:normal;font-variant:normal;font-weight:bold;font-stretch:normal;font-family:sans-serif;-inkscape-font-specification:'sans-serif Bold';fill:#000000;stroke-width:0.268805"
         x="154.81535"
         y="27.351601"
         id="tspan17">SRT UNIN-LHR</tspan></text>
    <text
       xml:space="preserve"
       style="font-size:4.86132px;line-height:1.25;font-family:sans-serif;word-spacing:0px;fill:#000000;fill-opacity:1;stroke:#000000;stroke-width:0.227874"
       x="121.21767"
       y="55.214222"
       id="text20"
       transform="scale(1.1610928,0.86125761)"><tspan
         sodipodi:role="line"
         id="tspan18"
         style="fill:#000000;fill-opacity:1;stroke:#000000;stroke-width:0.227874"
         x="121.21767"
         y="55.214222" /><tspan
         sodipodi:role="line"
         style="fill:#000000;fill-opacity:1;stroke:#000000;stroke-width:0.227874"
         x="121.21767"
         y="61.290871"
         id="tspan19">BIZNIS KELERK</tspan><tspan
         sodipodi:role="line"
         style="fill:#000000;fill-opacity:1;stroke:#000000;stroke-width:0.227874"
         x="121.21767"
         y="67.367523"
         id="tspan20" /></text>
    <text
       xml:space="preserve"
       style="font-size:4.60567px;line-height:1.25;font-family:sans-serif;word-spacing:0px;fill:#000000;stroke:#000000;stroke-width:0.215891"
       x="115.22942"
       y="71.402458"
       id="text21"
       transform="scale(1.2255423,0.81596531)"><tspan
         sodipodi:role="line"
         id="tspan21"
         style="fill:#000000;stroke:#000000;stroke-width:0.215891"
         x="115.22942"
         y="71.402458">VZS-SRD</tspan></text>
    <text
       xml:space="preserve"
       style="font-size:4.09141px;line-height:1.25;font-family:sans-serif;word-spacing:0px;fill:#000000;stroke:none;stroke-width:0.191785"
       x="140.63792"
       y="85.652931"
       id="text27"><tspan
         sodipodi:role="line"
         id="tspan22"
         style="fill:#000000;stroke:none;stroke-width:0.191785"
         x="140.63792"
         y="85.652931">天然的安全性(FTN:SLNSZ)</tspan><tspan
         sodipodi:role="line"
         style="fill:#000000;stroke:none;stroke-width:0.191785"
         x="140.63792"
         y="90.870239"
         id="tspan23" /><tspan
         sodipodi:role="line"
         style="fill:#000000;stroke:none;stroke-width:0.191785"
         x="140.63792"
         y="95.984497"
         id="tspan24">采用端到端加密</tspan><tspan
         sodipodi:role="line"
         style="fill:#000000;stroke:none;stroke-width:0.191785"
         x="140.63792"
         y="101.20181"
         id="tspan25">全封闭加密技术来保护安全</tspan><tspan
         sodipodi:role="line"
         style="fill:#000000;stroke:none;stroke-width:0.191785"
         x="140.63792"
         y="106.41911"
         id="tspan26">无法解密并窥探您的</tspan><tspan
         sodipodi:role="line"
         style="fill:#000000;stroke:none;stroke-width:0.191785"
         x="140.63792"
         y="111.63642"
         id="tspan27">更不可能泄露给第三方</tspan></text>
    <path
       id="path27"
       style="fill:#e9e9e9;fill-opacity:1;stroke:#999999;stroke-width:0.0781814;stroke-dasharray:none;stroke-opacity:1"
       inkscape:transform-center-x="-0.047412876"
       inkscape:transform-center-y="-2.2827539"
       d="m 245.98942,71.256599 -0.0949,-0.05366 -8.00289,4.730165 0.0949,9.295179 8.00287,4.512717 z" />
    <path
       id="path28"
       style="fill:#363636;fill-opacity:1;stroke:#d4aa00;stroke-width:0.0587123;stroke-dasharray:none;stroke-opacity:1"
       inkscape:transform-center-x="-0.035595313"
       inkscape:transform-center-y="-1.7142921"
       d="m 279.69038,-64.609103 v 13.881318 l 0.0708,0.0398 6.00997,-3.55224 -0.0713,-6.98045 z" />
    <text
       xml:space="preserve"
       style="font-size:8.30286px;line-height:1.25;font-family:sans-serif;word-spacing:0px;fill:#000000;fill-opacity:1;stroke:none;stroke-width:0.389196"
       x="109.7251"
       y="56.02742"
       id="text29"
       transform="scale(1.2777208,0.78264359)"><tspan
         sodipodi:role="line"
         id="tspan28"
         style="font-style:normal;font-variant:normal;font-weight:bold;font-stretch:normal;font-family:sans-serif;-inkscape-font-specification:'sans-serif Bold';fill:#000000;fill-opacity:1;stroke:none;stroke-width:0.389196"
         x="109.7251"
         y="56.02742">ENANGS MENT</tspan><tspan
         sodipodi:role="line"
         style="font-style:normal;font-variant:normal;font-weight:bold;font-stretch:normal;font-family:sans-serif;-inkscape-font-specification:'sans-serif Bold';fill:#000000;fill-opacity:1;stroke:none;stroke-width:0.389196"
         x="109.7251"
         y="66.405991"
         id="tspan29" /></text>
    <path
       sodipodi:type="star"
       style="fill:#e9e9e9;fill-opacity:1;stroke:#999999;stroke-width:0.208674;stroke-dasharray:none;stroke-opacity:1"
       id="path31"
       inkscape:flatsided="true"
       sodipodi:sides="6"
       sodipodi:cx="153.35751"
       sodipodi:cy="17.244099"
       sodipodi:r1="24.81127"
       sodipodi:r2="12.405635"
       sodipodi:arg1="0.51339905"
       sodipodi:arg2="1.0369978"
       inkscape:rounded="3.469447e-18"
       inkscape:randomized="0"
       d="M 174.97012,29.429929 153.61058,42.054078 131.99797,29.868248 131.74491,5.0582687 153.10445,-7.5658805 174.71705,4.6199494 Z"
       inkscape:transform-center-x="-0.047183795"
       inkscape:transform-center-y="-2.272234"
       transform="matrix(0.37293009,0,0,0.37293009,37.391954,90.876726)" />
    <path
       sodipodi:type="star"
       style="fill:#e9e9e9;fill-opacity:1;stroke:#999999;stroke-width:0.208674;stroke-dasharray:none;stroke-opacity:1"
       id="path32"
       inkscape:flatsided="true"
       sodipodi:sides="6"
       sodipodi:cx="153.35751"
       sodipodi:cy="17.244099"
       sodipodi:r1="24.81127"
       sodipodi:r2="12.405635"
       sodipodi:arg1="0.51339905"
       sodipodi:arg2="1.0369978"
       inkscape:rounded="3.469447e-18"
       inkscape:randomized="0"
       d="M 174.97012,29.429929 153.61058,42.054078 131.99797,29.868248 131.74491,5.0582687 153.10445,-7.5658805 174.71705,4.6199494 Z"
       inkscape:transform-center-x="-0.047180506"
       inkscape:transform-center-y="-2.2722235"
       transform="matrix(0.37293009,0,0,0.37293009,46.35243,75.399558)" />
    <path
       sodipodi:type="star"
       style="fill:#e9e9e9;fill-opacity:1;stroke:#999999;stroke-width:0.208674;stroke-dasharray:none;stroke-opacity:1"
       id="path33"
       inkscape:flatsided="true"
       sodipodi:sides="6"
       sodipodi:cx="153.35751"
       sodipodi:cy="17.244099"
       sodipodi:r1="24.81127"
       sodipodi:r2="12.405635"
       sodipodi:arg1="0.51339905"
       sodipodi:arg2="1.0369978"
       inkscape:rounded="3.469447e-18"
       inkscape:randomized="0"
       d="M 174.97012,29.429929 153.61058,42.054078 131.99797,29.868248 131.74491,5.0582687 153.10445,-7.5658805 174.71705,4.6199494 Z"
       inkscape:transform-center-x="-0.047180373"
       inkscape:transform-center-y="-2.2722298"
       transform="matrix(0.37293009,0,0,0.37293009,19.470992,91.012493)" />
    <path
       sodipodi:type="star"
       style="fill:#e9e9e9;fill-opacity:1;stroke:#999999;stroke-width:0.208674;stroke-dasharray:none;stroke-opacity:1"
       id="path34"
       inkscape:flatsided="true"
       sodipodi:sides="6"
       sodipodi:cx="153.35751"
       sodipodi:cy="17.244099"
       sodipodi:r1="24.81127"
       sodipodi:r2="12.405635"
       sodipodi:arg1="0.51339905"
       sodipodi:arg2="1.0369978"
       inkscape:rounded="3.469447e-18"
       inkscape:randomized="0"
       d="M 174.97012,29.429929 153.61058,42.054078 131.99797,29.868248 131.74491,5.0582687 153.10445,-7.5658805 174.71705,4.6199494 Z"
       inkscape:transform-center-x="-0.047189785"
       inkscape:transform-center-y="-2.2722373"
       transform="matrix(0.37293009,0,0,0.37293009,55.158145,90.978859)" />
    <path
       sodipodi:type="star"
       style="fill:#e9e9e9;fill-opacity:1;stroke:#999999;stroke-width:0.208674;stroke-dasharray:none;stroke-opacity:1"
       id="path35"
       inkscape:flatsided="true"
       sodipodi:sides="6"
       sodipodi:cx="153.35751"
       sodipodi:cy="17.244099"
       sodipodi:r1="24.81127"
       sodipodi:r2="12.405635"
       sodipodi:arg1="0.51339905"
       sodipodi:arg2="1.0369978"
       inkscape:rounded="3.469447e-18"
       inkscape:randomized="0"
       d="M 174.97012,29.429929 153.61058,42.054078 131.99797,29.868248 131.74491,5.0582687 153.10445,-7.5658805 174.71705,4.6199494 Z"
       inkscape:transform-center-x="-0.047182074"
       inkscape:transform-center-y="-2.2722394"
       transform="matrix(0.37293009,0,0,0.37293009,46.197658,106.11738)" />
    <path
       sodipodi:type="star"
       style="fill:#e9e9e9;fill-opacity:1;stroke:#999999;stroke-width:0.208674;stroke-dasharray:none;stroke-opacity:1"
       id="path36"
       inkscape:flatsided="true"
       sodipodi:sides="6"
       sodipodi:cx="153.35751"
       sodipodi:cy="17.244099"
       sodipodi:r1="24.81127"
       sodipodi:r2="12.405635"
       sodipodi:arg1="0.51339905"
       sodipodi:arg2="1.0369978"
       inkscape:rounded="3.469447e-18"
       inkscape:randomized="0"
       d="M 174.97012,29.429929 153.61058,42.054078 131.99797,29.868248 131.74491,5.0582687 153.10445,-7.5658805 174.71705,4.6199494 Z"
       inkscape:transform-center-x="-0.047189652"
       inkscape:transform-center-y="-2.2722324"
       transform="matrix(0.37293009,0,0,0.37293009,28.276707,106.25315)" />
    <path
       id="path37"
       style="fill:#e9e9e9;fill-opacity:1;stroke:#999999;stroke-width:0.0778209;stroke-dasharray:none;stroke-opacity:1"
       inkscape:transform-center-x="-0.047172166"
       inkscape:transform-center-y="-2.2722239"
       d="m 121.66368,72.569323 -0.0945,-0.05341 -7.96599,4.708352 0.0945,9.252313 7.96596,4.491906 z" />
    <path
       inkscape:connector-curvature="0"
       id="path39"
       style="fill:#67daff;fill-opacity:1;fill-rule:evenodd;stroke:#333333;stroke-width:0.300452;stroke-linecap:butt;stroke-linejoin:miter;stroke-miterlimit:4;stroke-dasharray:none"
       d="m 233.54094,24.936222 c 0.61173,0 1.16893,0.233482 1.58747,0.616114 l 2.11683,-1.211595 c -0.13982,-0.268915 -0.21892,-0.574424 -0.21892,-0.898493 0,-0.375041 0.10588,-0.725298 0.28937,-1.022651 l -2.03446,-2.541407 c -0.17973,0.09405 -0.38432,0.147356 -0.60135,0.147356 -0.43921,0 -0.82754,-0.218119 -1.06261,-0.55182 l -3.47666,0.982683 c 0.0303,0.135125 0.0462,0.275629 0.0462,0.419789 0,0.362737 -0.10071,0.701817 -0.27592,0.990979 l 2.59614,3.307903 c 0.31209,-0.152946 0.66293,-0.238858 1.03389,-0.238858 z m 2.0204,1.14593 c 0.21155,0.353035 0.33313,0.76604 0.33313,1.207483 0,1.299755 -1.05376,2.353481 -2.35353,2.353481 -1.29964,0 -2.3534,-1.053726 -2.3534,-2.353481 0,-0.570489 0.2031,-1.093696 0.5409,-1.50104 l -2.53675,-3.231974 c -0.27323,0.150064 -0.58701,0.23545 -0.92073,0.23545 -1.05802,0 -1.91573,-0.857719 -1.91573,-1.915873 0,-1.058013 0.85771,-1.915732 1.91573,-1.915732 0.67201,0 1.26301,0.34604 1.60498,0.869492 l 3.50989,-0.992172 c -0.004,-0.03667 -0.005,-0.07376 -0.005,-0.111192 0,-0.717351 0.58151,-1.298877 1.29885,-1.298877 0.71744,0 1.29897,0.581526 1.29897,1.298877 0,0.254785 -0.0736,0.492414 -0.20031,0.693027 l 1.99259,2.489102 c 0.33194,-0.261463 0.7508,-0.417398 1.20612,-0.417398 1.07744,0 1.95091,0.873465 1.95091,1.950918 0,1.077453 -0.87347,1.950953 -1.95091,1.950953 -0.50789,0 -0.97025,-0.194004 -1.31742,-0.512062 z" />
  </g>
</svg>
